<svg xmlns="http://www.w3.org/2000/svg" viewBox="0 0 761.34 446.27"><defs><style>.cls-1{fill:#c98800;}</style></defs><g id="Camada_2" data-name="Camada 2"><g id="Camada_4" data-name="Camada 4"><path class="cls-1" d="M91.22,190.27A133.21,133.21,0,0,1,55.8,185.7a74.86,74.86,0,0,1-29.14-15.29Q14.1,159.7,7.06,141.27T0,95.14Q0,70.83,7.58,52.79T28,23.13A86.12,86.12,0,0,1,56.46,5.75,92,92,0,0,1,88.34,0a113.63,113.63,0,0,1,18.82,1.31q7.57,1.31,16.2,3.39L158.91,28,143.23,57.76,91,37.37A53.34,53.34,0,0,0,64.43,44a46.73,46.73,0,0,0-18.69,19.6q-6.8,12.94-6.8,31.76,0,31.62,15,46.65t39.6,15q11.76,0,16.72-1.31t6.8-1.83V120.49H83.9V87h72.66l2.87,15.68-5.75,13.86v62.72Q150.8,180.34,144,183t-19.47,5Q111.87,190.28,91.22,190.27Z"/><path class="cls-1" d="M177.72,187.66l15.16-49.4V112.91l16.73-7.84,34-102.19h51.49L337.15,120l20.13,37.12v30.58H321.47l-15.68-47H229.73l-13.85,47Zm66.65-79.46H294L271.55,37.37h-5.49Z"/><path class="cls-1" d="M386,187.66v-143L380.8,18.56l5.49-15.68h39.46l56.46,109.77h5.22L535,2.88h41.56l2.61,15.68-2.61,25.09v144H539.71l.78-22.22V71.61h-2.87l-8.89,21.7-30.32,68.21H467.05L425.23,71.61h-2.61V92.78l2.61,94.88Z"/><path class="cls-1" d="M621,187.66,615.76,172,621,145.84V2.61H739.65l13.07,7.84L738.08,39.2l-26.14-2.61H657.06V77.1h70.56v32.67H702l-45-2.61v46.52h83.63l20.65,17.25-15.42,16.73Z"/><path class="cls-1" d="M124.41,446.27a102.34,102.34,0,0,1-28.62-4,61.84,61.84,0,0,1-25.22-14.51q-11.25-10.44-17.78-29t-6.53-47.56q0-29,6.53-47.57t17.78-29a62,62,0,0,1,25.22-14.51,104.32,104.32,0,0,1,58,.13,61.31,61.31,0,0,1,25,14.64q11,10.46,17.38,29t6.4,47.31q0,28.74-6.4,47.3t-17.38,29a61.31,61.31,0,0,1-25,14.64A102,102,0,0,1,124.41,446.27Zm0-36.59q16.46,0,24.83-6.93t11.37-20.12q3-13.2,3-31.49,0-18.56-3-31.63t-11.37-20q-8.37-6.93-24.83-6.93-16.22,0-24.7,7.06T88.34,319.77q-2.88,13.08-2.88,31.37a148.16,148.16,0,0,0,2.88,31.23q2.86,13.2,11.37,20.25T124.41,409.68Z"/><path class="cls-1" d="M272.6,443.66,225.55,300.17l-7.84-25.88V258.61H256.4l36.85,145.32h5.22L334.8,258.61H373v15.68l-7.84,25.88L318.34,443.66Z"/><path class="cls-1" d="M402.76,443.66,397.53,428l5.23-26.14V258.61H521.42l13.06,7.84L519.85,295.2l-26.14-2.61H438.82V333.1h70.57v32.67H483.78l-45-2.61v46.52h83.64l20.65,17.25-15.42,16.73Z"/><path class="cls-1" d="M569.24,443.66v-143L564,274.29l5.22-15.68H632q19.08,0,34.37,5.88a49.39,49.39,0,0,1,24.3,19.87q9,14,9,38.55,0,23.26-8.75,37.11a53.34,53.34,0,0,1-24.18,20.65l7.58,6.79,23.26,27.19L712.47,428v15.68H664.12L627.53,388h-21.7v13.59l2.62,26.13-2.62,16Zm36.59-88.87h25.62q17.25,0,23.52-9t6.27-22.87q0-14.64-6.66-22.48t-24.18-7.84H603.22Z"/></g></g></svg>