<svg xmlns="http://www.w3.org/2000/svg" viewBox="0 0 623.61 281.71"><defs><style>.cls-1{fill:#6e2761;}.cls-2{fill:#c98800;}</style></defs><g id="Camada_2" data-name="Camada 2"><g id="Camada_4" data-name="Camada 4"><path class="cls-1" d="M54.89,187.66,7.84,44.17,0,18.29V2.61H38.94L76.84,142.7h5.23L109.77,2.61h52.8l22,106.9,5.23,33.19H195L232.61,2.61h38.68V18.29l-7.84,25.88L216.93,187.66H165.18L138,43.39h-5.49L127,80.76l-20.38,106.9Z"/><path class="cls-1" d="M364.6,190.27A102.34,102.34,0,0,1,336,186.22a61.9,61.9,0,0,1-25.22-14.51q-11.24-10.44-17.77-29t-6.53-47.56q0-29,6.53-47.57t17.77-29A62,62,0,0,1,336,4.05a104.35,104.35,0,0,1,58,.13,61.31,61.31,0,0,1,25,14.64q11,10.45,17.38,29t6.4,47.31q0,28.74-6.4,47.3t-17.38,29a61.31,61.31,0,0,1-25,14.64A102.09,102.09,0,0,1,364.6,190.27Zm0-36.59q16.47,0,24.83-6.93t11.37-20.12q3-13.2,3-31.49,0-18.56-3-31.63t-11.37-20q-8.37-6.93-24.83-6.93-16.2,0-24.7,7.06T328.53,63.77q-2.86,13.08-2.87,31.37a148.88,148.88,0,0,0,2.87,31.23q2.88,13.2,11.37,20.25T364.6,153.68Z"/><path class="cls-1" d="M480.38,187.66v-143l-5.22-26.4,5.22-15.68h62.73q19.08,0,34.37,5.88a49.51,49.51,0,0,1,24.31,19.87q9,14,9,38.55,0,23.27-8.75,37.11a53.34,53.34,0,0,1-24.18,20.65l7.58,6.79,23.26,27.19L623.61,172v15.68H575.26L538.67,132H517v13.59l2.62,26.13L517,187.66ZM517,98.79h25.62q17.25,0,23.52-9t6.27-22.87q0-14.64-6.66-22.48t-24.18-7.84H514.36Z"/><path class="cls-2" d="M28.44,280.94,17.85,254.5l-1.55-10H31l5,24.11h1.55l5.87-24.11H58.81l5.8,24.11h1.55l5.1-24.11H85.87l-1.55,10L73.66,280.94H57.42l-5.56-24.89H50.31l-5.64,24.89Z"/><path class="cls-2" d="M99.78,242.21,90,232.32l9.81-9.82,9.82,9.82Zm-7,38.73V255.36l-1.63-6.19,1.55-4.71h14v36.48Z"/><path class="cls-2" d="M130.31,281.71a11.54,11.54,0,0,1-8.42-3.09,10.45,10.45,0,0,1-3.17-7.81V254h-5.64v-7.34l4.87-3.79,5.49-9.58h9.12v11.21h10.82v10H132.56v16.55l10.82-.08v8.42a57.64,57.64,0,0,1-6.57,1.74A33.43,33.43,0,0,1,130.31,281.71Z"/><path class="cls-2" d="M168.11,281.71a25,25,0,0,1-9.62-1.77,14.08,14.08,0,0,1-6.8-6q-2.52-4.17-2.52-11.28t2.71-11.33a15.23,15.23,0,0,1,7-5.91,24.12,24.12,0,0,1,9.2-1.78c2.83,0,5.27.11,7.31.31s3.38.39,4.05.54l6,6.81-6.18,8.42-8.89-5.26q-6.65,0-6.65,8.2c0,2.83.67,4.91,2,6.22s3.4,2,6.19,2a22.69,22.69,0,0,0,7.49-1.16,35.83,35.83,0,0,0,5.18-2.16V278.7a26.94,26.94,0,0,1-6.3,2.12A47.18,47.18,0,0,1,168.11,281.71Z"/><path class="cls-2" d="M194.78,280.94V238.58l-1.55-7.73,1.55-4.64h13.91v12.53l-.77,8.58.77.38a9.57,9.57,0,0,1,3.44-2.74,14,14,0,0,1,6.61-1.35q7,0,10.44,3.94t3.47,11.05v10l1.63,7.58-1.63,4.71H218.74V260.61a7.05,7.05,0,0,0-1.28-4.52,4.79,4.79,0,0,0-4-1.59l-4.79,2.25v24.19Z"/><path class="cls-2" d="M280.42,281.71q-9.44,0-14.61-4.48t-5.18-14.53q0-10.12,5.18-14.57t14.61-4.45q9.66,0,14.65,4.45t5,14.57q0,10.05-5,14.53T280.42,281.71Zm0-10a4.56,4.56,0,0,0,4.41-2.36,18.48,18.48,0,0,0,0-13.26,4.56,4.56,0,0,0-4.41-2.32q-3.24,0-4.52,2.32a17.81,17.81,0,0,0,0,13.26A4.7,4.7,0,0,0,280.42,271.67Z"/><path class="cls-2" d="M308.17,280.94V257.67l-1.54-8.5,2.39-4.71h11.52v3.32l.69.46a24.51,24.51,0,0,1,2.36-1.81,18.18,18.18,0,0,1,3.67-1.9,13.41,13.41,0,0,1,4.87-.85q7,0,10.44,3.94t3.48,11.06v9.82l1.62,7.73-1.62,4.71H332.13V260.69a7,7,0,0,0-1.27-4.52,4.8,4.8,0,0,0-4-1.59l-4.8,1.47v24.89Z"/><path class="cls-2" d="M376.81,280.94V256.75L375.19,249l1.62-4.64h10.51l1.55,1.78a19.24,19.24,0,0,1,4.13-1.94,15.53,15.53,0,0,1,4.6-.61,20.09,20.09,0,0,1,3.09.23,9.14,9.14,0,0,1,2.4.62l5,4.25-5,9.89-10.2-4.25-2.32.77v25.82Z"/><path class="cls-2" d="M429.76,281.71a29.54,29.54,0,0,1-10.59-1.77,14.51,14.51,0,0,1-7.27-6q-2.62-4.17-2.63-11.28A20.12,20.12,0,0,1,411,254a16.19,16.19,0,0,1,4.68-5.91,19.23,19.23,0,0,1,6.57-3.32,26.86,26.86,0,0,1,7.5-1A31,31,0,0,1,440,245a26.17,26.17,0,0,1,4.75,2.08l3.87,12.3-1.55,4.79h-24A8,8,0,0,0,426,269q2.32,1.94,7.65,1.93a24.56,24.56,0,0,0,7.19-.93c2-.61,3.58-1.16,4.72-1.62V278.7a25.73,25.73,0,0,1-6.69,2.12A44.89,44.89,0,0,1,429.76,281.71Zm-6.57-22.49,10.66-1.55-.69-3.32a4.52,4.52,0,0,0-1.59-.46,11.69,11.69,0,0,0-1.81-.16,6.49,6.49,0,0,0-3.6.93,6.56,6.56,0,0,0-2.16,2.2A5.58,5.58,0,0,0,423.19,259.22Z"/><path class="cls-2" d="M471.73,281.71a38.35,38.35,0,0,1-10-1.16,35,35,0,0,1-6.73-2.39V267.41a37,37,0,0,0,6.53,2.17,50.58,50.58,0,0,0,6.07,1c1.81.18,3.09.27,3.87.27a3.09,3.09,0,0,0,1.85-.42,1.29,1.29,0,0,0,.54-1.05c0-.56-.46-1-1.39-1.43a41.17,41.17,0,0,0-5.25-1.5,45,45,0,0,1-6.15-2,12.42,12.42,0,0,1-4.87-3.36,8.48,8.48,0,0,1-1.89-5.79,10.82,10.82,0,0,1,2.08-7,11.16,11.16,0,0,1,6-3.59,34.65,34.65,0,0,1,9-1,47,47,0,0,1,5.49.31c1.7.21,2.91.36,3.63.47l7.19,4.63-3.48,8.28-13.53-2.94c-1.65,0-2.47.54-2.47,1.62s1.19,2,3.56,2.55q2.78.61,5.72,1.35a29.22,29.22,0,0,1,5.37,1.9,10.7,10.7,0,0,1,3.94,3.09,8,8,0,0,1,1.51,5.1q0,5.88-4.21,8.77T471.73,281.71Z"/><path class="cls-2" d="M513.08,281.71a25,25,0,0,1-9.62-1.77,14.08,14.08,0,0,1-6.8-6q-2.52-4.17-2.51-11.28t2.7-11.33a15.23,15.23,0,0,1,7-5.91,24.12,24.12,0,0,1,9.2-1.78c2.84,0,5.27.11,7.31.31s3.38.39,4.05.54l6,6.81-6.18,8.42-8.89-5.26q-6.64,0-6.65,8.2c0,2.83.67,4.91,2,6.22s3.4,2,6.19,2a22.69,22.69,0,0,0,7.49-1.16,35.83,35.83,0,0,0,5.18-2.16V278.7a26.94,26.94,0,0,1-6.3,2.12A47.18,47.18,0,0,1,513.08,281.71Z"/><path class="cls-2" d="M549.8,281.71c-3.09,0-5.48-.59-7.15-1.77a9.11,9.11,0,0,1-3.48-5.15,29.23,29.23,0,0,1-1-8.07V244.38h13.92v20.33a7.75,7.75,0,0,0,1.12,4.48,3.8,3.8,0,0,0,3.36,1.62,5.29,5.29,0,0,0,3.83-1.77,7.11,7.11,0,0,0,1.74-5.18V244.38h13.91V268.5l1.62,7.73-1.62,4.71H563v-3.79l-.78-.38a15.52,15.52,0,0,1-2.9,2.16,21,21,0,0,1-4.32,2A16.5,16.5,0,0,1,549.8,281.71Z"/><path class="cls-2" d="M604.45,281.71a29.54,29.54,0,0,1-10.59-1.77,14.51,14.51,0,0,1-7.27-6Q584,269.81,584,262.7A20.12,20.12,0,0,1,585.7,254a16.19,16.19,0,0,1,4.68-5.91,19.23,19.23,0,0,1,6.57-3.32,26.86,26.86,0,0,1,7.5-1A31,31,0,0,1,614.69,245a26.52,26.52,0,0,1,4.75,2.08l3.87,12.3-1.55,4.79h-24a8,8,0,0,0,2.86,4.79q2.33,1.94,7.65,1.93a24.56,24.56,0,0,0,7.19-.93c2-.61,3.58-1.16,4.72-1.62V278.7a25.73,25.73,0,0,1-6.69,2.12A44.89,44.89,0,0,1,604.45,281.71Zm-6.57-22.49,10.66-1.55-.69-3.32a4.52,4.52,0,0,0-1.59-.46,11.69,11.69,0,0,0-1.81-.16,6.49,6.49,0,0,0-3.6.93,6.56,6.56,0,0,0-2.16,2.2A5.58,5.58,0,0,0,597.88,259.22Z"/></g></g></svg>